<?xml version="1.0" standalone="no"?>
<!DOCTYPE svg PUBLIC "-//W3C//DTD SVG 20010904//EN"
 "http://www.w3.org/TR/2001/REC-SVG-20010904/DTD/svg10.dtd">
<svg version="1.0" xmlns="http://www.w3.org/2000/svg"
 width="700.000000pt" height="700.000000pt" viewBox="0 0 700.000000 700.000000"
 preserveAspectRatio="xMidYMid meet">
<metadata>
Created by potrace 1.14, written by Peter Selinger 2001-2017
</metadata>
<g transform="translate(0.000000,700.000000) scale(0.100000,-0.100000)"
fill="#000000" stroke="none">
<path d="M3577 6544 c-1 -1 -54 -4 -117 -8 -100 -5 -241 -19 -305 -30 -74 -14
-191 -37 -250 -51 -76 -18 -352 -107 -400 -129 -16 -8 -59 -26 -95 -41 -36
-15 -116 -54 -178 -86 -600 -313 -1083 -828 -1359 -1450 -124 -279 -212 -616
-240 -919 -15 -161 -7 -585 12 -660 2 -8 6 -37 10 -65 3 -27 17 -104 31 -169
134 -651 507 -1266 1024 -1686 30 -25 57 -47 60 -51 3 -3 50 -37 105 -76 411
-291 890 -479 1375 -538 150 -19 232 -23 430 -20 420 6 767 79 1146 241 163
69 464 232 464 250 0 2 -36 -14 -79 -36 -172 -86 -450 -185 -601 -214 -14 -2
-56 -11 -95 -20 -38 -8 -92 -17 -120 -20 -27 -4 -61 -8 -74 -11 -126 -24 -532
-25 -701 -1 -14 2 -52 7 -85 11 -33 4 -63 9 -66 11 -4 2 -24 6 -45 9 -64 10
-293 72 -389 105 -769 270 -1391 857 -1693 1595 -85 209 -149 439 -177 640 -3
22 -7 54 -10 70 -24 159 -24 551 -1 682 2 10 7 41 10 68 11 75 16 106 27 155
6 25 13 56 15 70 23 127 116 392 201 570 298 624 865 1156 1488 1394 39 15 79
31 90 36 75 33 351 108 455 124 19 3 46 8 60 10 133 24 235 31 460 31 231 0
323 -6 460 -31 14 -2 41 -7 60 -10 141 -22 407 -102 573 -171 171 -72 430
-212 500 -271 9 -8 17 -12 17 -9 0 3 -37 34 -82 69 -419 322 -936 537 -1453
604 -27 3 -59 8 -70 10 -11 2 -78 7 -150 10 -201 9 -235 10 -238 8z"/>
<path d="M3415 6049 c-22 -4 -58 -10 -80 -14 -22 -3 -48 -8 -57 -11 -9 -3 -25
-6 -35 -8 -10 -2 -54 -14 -98 -25 -44 -12 -87 -23 -95 -25 -22 -6 -198 -71
-245 -91 -163 -70 -433 -229 -551 -326 -23 -19 -61 -50 -85 -69 -75 -61 -252
-242 -323 -330 -211 -264 -373 -574 -461 -885 -36 -124 -68 -272 -79 -360 -4
-27 -9 -63 -12 -80 -13 -80 -19 -362 -9 -460 2 -22 6 -69 9 -105 13 -140 43
-299 87 -460 83 -299 255 -640 452 -897 123 -159 197 -237 342 -359 39 -32 79
-67 90 -77 40 -37 202 -156 295 -217 107 -69 358 -196 466 -234 183 -66 408
-123 554 -141 30 -4 66 -9 80 -12 14 -2 129 -6 255 -8 202 -3 249 0 385 20
158 24 256 44 345 71 90 26 180 56 200 64 11 5 49 21 85 36 178 72 410 210
565 335 44 35 103 82 130 102 155 119 346 342 479 560 47 78 148 269 124 233
-76 -109 -146 -207 -167 -232 -14 -17 -42 -50 -61 -74 -67 -84 -227 -236 -328
-312 l-102 -77 -1 32 c0 18 -2 40 -4 49 -2 9 -6 54 -10 100 -3 46 -8 99 -10
118 -6 53 -15 157 -30 320 -16 185 -25 278 -30 320 -2 19 -7 69 -10 110 -13
159 -22 204 -56 278 -71 157 -206 255 -384 278 -27 3 -52 8 -55 9 -3 2 -44 6
-90 10 -47 4 -92 8 -100 10 -8 2 -62 7 -120 10 -102 6 -104 6 -83 -12 195
-161 331 -278 328 -283 -2 -3 -93 -50 -202 -105 -109 -55 -200 -101 -202 -102
-2 -1 35 -67 82 -146 121 -202 115 -180 74 -268 -19 -41 -46 -99 -59 -129
-141 -314 -432 -950 -434 -948 -1 2 -5 57 -9 123 -3 66 -8 152 -10 190 -2 39
-6 126 -10 195 -3 69 -7 166 -10 215 -10 187 -15 274 -20 390 -7 131 -9 180
-20 388 l-7 138 37 32 38 33 -52 160 -51 161 -160 0 c-139 1 -162 -2 -169 -16
-5 -9 -29 -79 -55 -156 l-46 -140 39 -40 c27 -28 38 -47 36 -65 -2 -14 -6 -90
-10 -170 -3 -80 -8 -172 -10 -205 -2 -33 -6 -118 -10 -190 -4 -71 -8 -157 -10
-190 -2 -33 -6 -127 -10 -210 -4 -82 -8 -168 -10 -190 -2 -22 -7 -110 -11
-195 -8 -167 -11 -226 -13 -250 -1 -8 -66 127 -144 300 -79 173 -156 342 -172
375 -15 33 -47 105 -72 160 -25 55 -56 125 -70 155 -14 30 -36 79 -49 108
l-24 52 94 163 c52 89 91 165 87 169 -3 4 -91 50 -196 103 -104 53 -193 99
-197 103 -4 4 64 67 150 139 87 73 166 141 176 152 19 20 18 21 -35 16 -116
-9 -185 -16 -219 -20 -43 -5 -127 -14 -200 -20 -230 -20 -405 -195 -434 -435
-3 -25 -12 -117 -21 -205 -8 -88 -17 -178 -20 -200 -2 -22 -7 -74 -10 -116 -3
-41 -7 -85 -9 -96 -3 -12 -7 -56 -11 -100 -3 -43 -8 -87 -10 -98 -2 -11 -4
-37 -4 -57 -1 -21 -5 -38 -10 -38 -15 0 -158 180 -236 295 -127 189 -220 378
-289 585 -47 143 -89 307 -87 345 0 2 -4 19 -9 36 -9 31 -16 85 -29 234 -10
110 -6 359 9 480 38 330 137 645 292 935 174 324 432 640 678 830 25 19 47 37
50 40 3 3 50 35 105 72 206 136 431 241 703 330 34 11 62 22 62 24 0 5 -2 4
-55 -7z"/>
<path d="M3730 5431 c-218 -56 -406 -216 -521 -444 -40 -79 -92 -224 -104
-287 -48 -269 -20 -530 80 -747 142 -310 397 -500 680 -509 202 -7 375 62 527
210 448 435 405 1289 -84 1654 -61 46 -153 93 -218 111 -25 7 -56 17 -70 21
-47 14 -223 8 -290 -9z"/>
</g>
</svg>
